<mxfile host="Electron" modified="2024-10-04T21:23:59.306Z" agent="Mozilla/5.0 (Windows NT 10.0; Win64; x64) AppleWebKit/537.36 (KHTML, like Gecko) draw.io/23.0.2 Chrome/120.0.6099.109 Electron/28.1.0 Safari/537.36" etag="aSYA0Y-TXBxy_SekETby" version="23.0.2" type="device">
  <diagram name="Page-1" id="MG5LI2uy3OAG8QXwMmSo">
    <mxGraphModel dx="2049" dy="2021" grid="1" gridSize="10" guides="1" tooltips="1" connect="1" arrows="1" fold="1" page="1" pageScale="1" pageWidth="1169" pageHeight="827" math="0" shadow="0">
      <root>
        <mxCell id="0" />
        <mxCell id="1" parent="0" />
        <mxCell id="G3nxdFLAYTbCHUNaFh7e-1" value="Software Development" style="rounded=1;whiteSpace=wrap;html=1;" parent="1" vertex="1">
          <mxGeometry x="1560" y="-280" width="200" height="40" as="geometry" />
        </mxCell>
        <mxCell id="G3nxdFLAYTbCHUNaFh7e-2" value="Metaheuristic&lt;br&gt;Alignment Tool" style="rounded=1;whiteSpace=wrap;html=1;fillColor=#f5f5f5;fontColor=#333333;strokeColor=#666666;" parent="1" vertex="1">
          <mxGeometry x="1000" y="-480" width="200" height="120" as="geometry" />
        </mxCell>
        <mxCell id="G3nxdFLAYTbCHUNaFh7e-3" value="" style="endArrow=none;html=1;rounded=0;" parent="1" source="G3nxdFLAYTbCHUNaFh7e-1" target="G3nxdFLAYTbCHUNaFh7e-2" edge="1">
          <mxGeometry width="50" height="50" relative="1" as="geometry">
            <mxPoint x="820" y="-180" as="sourcePoint" />
            <mxPoint x="870" y="-230" as="targetPoint" />
          </mxGeometry>
        </mxCell>
        <mxCell id="G3nxdFLAYTbCHUNaFh7e-4" value="Evaluation" style="rounded=1;whiteSpace=wrap;html=1;" parent="1" vertex="1">
          <mxGeometry x="1800" y="-120" width="200" height="40" as="geometry" />
        </mxCell>
        <mxCell id="G3nxdFLAYTbCHUNaFh7e-5" value="" style="endArrow=none;html=1;rounded=0;entryX=0;entryY=0.5;entryDx=0;entryDy=0;" parent="1" source="G3nxdFLAYTbCHUNaFh7e-1" target="G3nxdFLAYTbCHUNaFh7e-4" edge="1">
          <mxGeometry width="50" height="50" relative="1" as="geometry">
            <mxPoint x="1002" y="-330" as="sourcePoint" />
            <mxPoint x="1130" y="-281" as="targetPoint" />
          </mxGeometry>
        </mxCell>
        <mxCell id="G3nxdFLAYTbCHUNaFh7e-7" value="Case Study against Externals" style="rounded=1;whiteSpace=wrap;html=1;" parent="1" vertex="1">
          <mxGeometry x="2040" y="-40" width="200" height="40" as="geometry" />
        </mxCell>
        <mxCell id="G3nxdFLAYTbCHUNaFh7e-8" value="Testing FRs &amp;amp; NFRs" style="rounded=1;whiteSpace=wrap;html=1;fillColor=#d5e8d4;strokeColor=#82b366;" parent="1" vertex="1">
          <mxGeometry x="2040" y="-120" width="200" height="40" as="geometry" />
        </mxCell>
        <mxCell id="G3nxdFLAYTbCHUNaFh7e-9" value="" style="endArrow=none;html=1;rounded=0;exitX=0;exitY=0.5;exitDx=0;exitDy=0;" parent="1" source="G3nxdFLAYTbCHUNaFh7e-7" target="G3nxdFLAYTbCHUNaFh7e-4" edge="1">
          <mxGeometry width="50" height="50" relative="1" as="geometry">
            <mxPoint x="810" y="-280" as="sourcePoint" />
            <mxPoint x="860.0000000000005" y="-200" as="targetPoint" />
          </mxGeometry>
        </mxCell>
        <mxCell id="G3nxdFLAYTbCHUNaFh7e-12" value="Research" style="rounded=1;whiteSpace=wrap;html=1;" parent="1" vertex="1">
          <mxGeometry x="1560" y="-640" width="200" height="40" as="geometry" />
        </mxCell>
        <mxCell id="G3nxdFLAYTbCHUNaFh7e-13" value="Finding Relevant Works" style="rounded=1;whiteSpace=wrap;html=1;" parent="1" vertex="1">
          <mxGeometry x="1800" y="-720" width="200" height="40" as="geometry" />
        </mxCell>
        <mxCell id="G3nxdFLAYTbCHUNaFh7e-14" value="Reading Literature" style="rounded=1;whiteSpace=wrap;html=1;" parent="1" vertex="1">
          <mxGeometry x="1800" y="-640" width="200" height="40" as="geometry" />
        </mxCell>
        <mxCell id="G3nxdFLAYTbCHUNaFh7e-15" value="Literature Review" style="rounded=1;whiteSpace=wrap;html=1;" parent="1" vertex="1">
          <mxGeometry x="760" y="40" width="200" height="40" as="geometry" />
        </mxCell>
        <mxCell id="G3nxdFLAYTbCHUNaFh7e-16" value="" style="endArrow=none;html=1;rounded=0;entryX=0;entryY=0.5;entryDx=0;entryDy=0;" parent="1" source="G3nxdFLAYTbCHUNaFh7e-2" target="G3nxdFLAYTbCHUNaFh7e-12" edge="1">
          <mxGeometry width="50" height="50" relative="1" as="geometry">
            <mxPoint x="620" y="-330" as="sourcePoint" />
            <mxPoint x="670" y="-380" as="targetPoint" />
          </mxGeometry>
        </mxCell>
        <mxCell id="G3nxdFLAYTbCHUNaFh7e-17" value="" style="endArrow=none;html=1;rounded=0;" parent="1" source="G3nxdFLAYTbCHUNaFh7e-13" target="G3nxdFLAYTbCHUNaFh7e-12" edge="1">
          <mxGeometry width="50" height="50" relative="1" as="geometry">
            <mxPoint x="1540" y="350" as="sourcePoint" />
            <mxPoint x="1590" y="300" as="targetPoint" />
          </mxGeometry>
        </mxCell>
        <mxCell id="G3nxdFLAYTbCHUNaFh7e-18" value="" style="endArrow=none;html=1;rounded=0;" parent="1" source="G3nxdFLAYTbCHUNaFh7e-14" target="G3nxdFLAYTbCHUNaFh7e-12" edge="1">
          <mxGeometry width="50" height="50" relative="1" as="geometry">
            <mxPoint x="1143" y="30" as="sourcePoint" />
            <mxPoint x="1277" y="110" as="targetPoint" />
          </mxGeometry>
        </mxCell>
        <mxCell id="G3nxdFLAYTbCHUNaFh7e-19" value="" style="endArrow=none;html=1;rounded=0;" parent="1" source="G3nxdFLAYTbCHUNaFh7e-15" target="G3nxdFLAYTbCHUNaFh7e-67" edge="1">
          <mxGeometry width="50" height="50" relative="1" as="geometry">
            <mxPoint x="1963" y="280" as="sourcePoint" />
            <mxPoint x="2097" y="360" as="targetPoint" />
          </mxGeometry>
        </mxCell>
        <mxCell id="G3nxdFLAYTbCHUNaFh7e-20" value="" style="endArrow=none;html=1;rounded=0;" parent="1" source="G3nxdFLAYTbCHUNaFh7e-7" target="G3nxdFLAYTbCHUNaFh7e-21" edge="1">
          <mxGeometry width="50" height="50" relative="1" as="geometry">
            <mxPoint x="1380" y="-500" as="sourcePoint" />
            <mxPoint x="1040" y="-160" as="targetPoint" />
          </mxGeometry>
        </mxCell>
        <mxCell id="G3nxdFLAYTbCHUNaFh7e-21" value="Selecting Externals" style="rounded=1;whiteSpace=wrap;html=1;fillColor=#d5e8d4;strokeColor=#82b366;" parent="1" vertex="1">
          <mxGeometry x="2280" y="-40" width="200" height="40" as="geometry" />
        </mxCell>
        <mxCell id="G3nxdFLAYTbCHUNaFh7e-24" value="" style="endArrow=none;html=1;rounded=0;" parent="1" source="G3nxdFLAYTbCHUNaFh7e-8" target="G3nxdFLAYTbCHUNaFh7e-4" edge="1">
          <mxGeometry width="50" height="50" relative="1" as="geometry">
            <mxPoint x="760" y="-250" as="sourcePoint" />
            <mxPoint x="720.0000000000005" y="-236.66666666666652" as="targetPoint" />
          </mxGeometry>
        </mxCell>
        <mxCell id="G3nxdFLAYTbCHUNaFh7e-32" value="Sprint (x6?)" style="rounded=1;whiteSpace=wrap;html=1;" parent="1" vertex="1">
          <mxGeometry x="2040" y="-280" width="200" height="40" as="geometry" />
        </mxCell>
        <mxCell id="G3nxdFLAYTbCHUNaFh7e-41" value="Plan incl. Goal" style="rounded=1;whiteSpace=wrap;html=1;fillColor=#d5e8d4;strokeColor=#82b366;" parent="1" vertex="1">
          <mxGeometry x="2280" y="-380" width="200" height="40" as="geometry" />
        </mxCell>
        <mxCell id="G3nxdFLAYTbCHUNaFh7e-42" value="Development" style="rounded=1;whiteSpace=wrap;html=1;fillColor=#d5e8d4;strokeColor=#82b366;" parent="1" vertex="1">
          <mxGeometry x="2280" y="-340" width="200" height="40" as="geometry" />
        </mxCell>
        <mxCell id="G3nxdFLAYTbCHUNaFh7e-43" value="Testing" style="rounded=1;whiteSpace=wrap;html=1;fillColor=#d5e8d4;strokeColor=#82b366;" parent="1" vertex="1">
          <mxGeometry x="2280" y="-260" width="200" height="40" as="geometry" />
        </mxCell>
        <mxCell id="G3nxdFLAYTbCHUNaFh7e-44" value="Review" style="rounded=1;whiteSpace=wrap;html=1;fillColor=#d5e8d4;strokeColor=#82b366;" parent="1" vertex="1">
          <mxGeometry x="2280" y="-220" width="200" height="40" as="geometry" />
        </mxCell>
        <mxCell id="G3nxdFLAYTbCHUNaFh7e-45" value="Document &amp;amp; Release" style="rounded=1;whiteSpace=wrap;html=1;fillColor=#d5e8d4;strokeColor=#82b366;" parent="1" vertex="1">
          <mxGeometry x="2280" y="-180" width="200" height="40" as="geometry" />
        </mxCell>
        <mxCell id="G3nxdFLAYTbCHUNaFh7e-46" value="" style="endArrow=none;html=1;rounded=0;entryX=0;entryY=0.5;entryDx=0;entryDy=0;" parent="1" source="G3nxdFLAYTbCHUNaFh7e-32" target="G3nxdFLAYTbCHUNaFh7e-45" edge="1">
          <mxGeometry width="50" height="50" relative="1" as="geometry">
            <mxPoint x="2105" y="-270" as="sourcePoint" />
            <mxPoint x="2320" y="-360" as="targetPoint" />
          </mxGeometry>
        </mxCell>
        <mxCell id="G3nxdFLAYTbCHUNaFh7e-47" value="" style="endArrow=none;html=1;rounded=0;entryX=0;entryY=0.5;entryDx=0;entryDy=0;" parent="1" source="G3nxdFLAYTbCHUNaFh7e-32" target="G3nxdFLAYTbCHUNaFh7e-41" edge="1">
          <mxGeometry width="50" height="50" relative="1" as="geometry">
            <mxPoint x="2163" y="-270" as="sourcePoint" />
            <mxPoint x="2240" y="-380" as="targetPoint" />
          </mxGeometry>
        </mxCell>
        <mxCell id="G3nxdFLAYTbCHUNaFh7e-48" value="" style="endArrow=none;html=1;rounded=0;entryX=0;entryY=0.5;entryDx=0;entryDy=0;" parent="1" source="G3nxdFLAYTbCHUNaFh7e-32" target="G3nxdFLAYTbCHUNaFh7e-42" edge="1">
          <mxGeometry width="50" height="50" relative="1" as="geometry">
            <mxPoint x="2197" y="-270" as="sourcePoint" />
            <mxPoint x="2330" y="-310" as="targetPoint" />
          </mxGeometry>
        </mxCell>
        <mxCell id="G3nxdFLAYTbCHUNaFh7e-49" value="" style="endArrow=none;html=1;rounded=0;" parent="1" source="G3nxdFLAYTbCHUNaFh7e-32" target="G3nxdFLAYTbCHUNaFh7e-43" edge="1">
          <mxGeometry width="50" height="50" relative="1" as="geometry">
            <mxPoint x="2200" y="-280" as="sourcePoint" />
            <mxPoint x="2240" y="-280" as="targetPoint" />
          </mxGeometry>
        </mxCell>
        <mxCell id="G3nxdFLAYTbCHUNaFh7e-50" value="" style="endArrow=none;html=1;rounded=0;entryX=0;entryY=0.5;entryDx=0;entryDy=0;" parent="1" source="G3nxdFLAYTbCHUNaFh7e-32" target="G3nxdFLAYTbCHUNaFh7e-44" edge="1">
          <mxGeometry width="50" height="50" relative="1" as="geometry">
            <mxPoint x="2197" y="-230" as="sourcePoint" />
            <mxPoint x="2330" y="-190" as="targetPoint" />
          </mxGeometry>
        </mxCell>
        <mxCell id="G3nxdFLAYTbCHUNaFh7e-51" value="Design" style="rounded=1;whiteSpace=wrap;html=1;" parent="1" vertex="1">
          <mxGeometry x="1800" y="-440" width="200" height="40" as="geometry" />
        </mxCell>
        <mxCell id="G3nxdFLAYTbCHUNaFh7e-52" value="Defining Requirements" style="rounded=1;whiteSpace=wrap;html=1;" parent="1" vertex="1">
          <mxGeometry x="1800" y="-520" width="200" height="40" as="geometry" />
        </mxCell>
        <mxCell id="G3nxdFLAYTbCHUNaFh7e-53" value="" style="endArrow=none;html=1;rounded=0;exitX=0;exitY=0.5;exitDx=0;exitDy=0;" parent="1" source="G3nxdFLAYTbCHUNaFh7e-52" target="G3nxdFLAYTbCHUNaFh7e-1" edge="1">
          <mxGeometry width="50" height="50" relative="1" as="geometry">
            <mxPoint x="1880" y="-240" as="sourcePoint" />
            <mxPoint x="1930" y="-290" as="targetPoint" />
          </mxGeometry>
        </mxCell>
        <mxCell id="G3nxdFLAYTbCHUNaFh7e-54" value="" style="endArrow=none;html=1;rounded=0;exitX=0;exitY=0.5;exitDx=0;exitDy=0;" parent="1" source="G3nxdFLAYTbCHUNaFh7e-51" target="G3nxdFLAYTbCHUNaFh7e-1" edge="1">
          <mxGeometry width="50" height="50" relative="1" as="geometry">
            <mxPoint x="1600" y="-330" as="sourcePoint" />
            <mxPoint x="1620" y="-370" as="targetPoint" />
          </mxGeometry>
        </mxCell>
        <mxCell id="G3nxdFLAYTbCHUNaFh7e-55" value="Iterative Development" style="rounded=1;whiteSpace=wrap;html=1;" parent="1" vertex="1">
          <mxGeometry x="1800" y="-280" width="200" height="40" as="geometry" />
        </mxCell>
        <mxCell id="G3nxdFLAYTbCHUNaFh7e-56" value="" style="endArrow=none;html=1;rounded=0;exitX=0;exitY=0.5;exitDx=0;exitDy=0;" parent="1" source="G3nxdFLAYTbCHUNaFh7e-55" target="G3nxdFLAYTbCHUNaFh7e-1" edge="1">
          <mxGeometry width="50" height="50" relative="1" as="geometry">
            <mxPoint x="1665" y="-250" as="sourcePoint" />
            <mxPoint x="1635" y="-370" as="targetPoint" />
          </mxGeometry>
        </mxCell>
        <mxCell id="G3nxdFLAYTbCHUNaFh7e-57" value="" style="endArrow=none;html=1;rounded=0;" parent="1" source="G3nxdFLAYTbCHUNaFh7e-55" target="G3nxdFLAYTbCHUNaFh7e-32" edge="1">
          <mxGeometry width="50" height="50" relative="1" as="geometry">
            <mxPoint x="2506" y="-250" as="sourcePoint" />
            <mxPoint x="2040" y="-360.0000000000002" as="targetPoint" />
          </mxGeometry>
        </mxCell>
        <mxCell id="G3nxdFLAYTbCHUNaFh7e-65" value="Collaboration" style="rounded=1;whiteSpace=wrap;html=1;" parent="1" vertex="1">
          <mxGeometry x="1000" y="-640" width="200" height="40" as="geometry" />
        </mxCell>
        <mxCell id="G3nxdFLAYTbCHUNaFh7e-66" value="" style="endArrow=none;html=1;rounded=0;" parent="1" source="G3nxdFLAYTbCHUNaFh7e-65" target="G3nxdFLAYTbCHUNaFh7e-2" edge="1">
          <mxGeometry width="50" height="50" relative="1" as="geometry">
            <mxPoint x="726" y="-530" as="sourcePoint" />
            <mxPoint x="920" y="-445" as="targetPoint" />
          </mxGeometry>
        </mxCell>
        <mxCell id="G3nxdFLAYTbCHUNaFh7e-67" value="Final Report" style="rounded=1;whiteSpace=wrap;html=1;fillColor=#f8cecc;strokeColor=#b85450;" parent="1" vertex="1">
          <mxGeometry x="1000" y="40" width="200" height="40" as="geometry" />
        </mxCell>
        <mxCell id="G3nxdFLAYTbCHUNaFh7e-68" value="On Approaches to MSA" style="rounded=1;whiteSpace=wrap;html=1;fillColor=#d5e8d4;strokeColor=#82b366;" parent="1" vertex="1">
          <mxGeometry x="2040" y="-640" width="200" height="40" as="geometry" />
        </mxCell>
        <mxCell id="G3nxdFLAYTbCHUNaFh7e-69" value="On Metaheuristics" style="rounded=1;whiteSpace=wrap;html=1;fillColor=#d5e8d4;strokeColor=#82b366;" parent="1" vertex="1">
          <mxGeometry x="2040" y="-720" width="200" height="40" as="geometry" />
        </mxCell>
        <mxCell id="G3nxdFLAYTbCHUNaFh7e-70" value="" style="endArrow=none;html=1;rounded=0;" parent="1" source="G3nxdFLAYTbCHUNaFh7e-69" target="G3nxdFLAYTbCHUNaFh7e-13" edge="1">
          <mxGeometry width="50" height="50" relative="1" as="geometry">
            <mxPoint x="1110" y="-430" as="sourcePoint" />
            <mxPoint x="1110" y="-270" as="targetPoint" />
          </mxGeometry>
        </mxCell>
        <mxCell id="G3nxdFLAYTbCHUNaFh7e-71" value="" style="endArrow=none;html=1;rounded=0;" parent="1" source="G3nxdFLAYTbCHUNaFh7e-68" target="G3nxdFLAYTbCHUNaFh7e-13" edge="1">
          <mxGeometry width="50" height="50" relative="1" as="geometry">
            <mxPoint x="875" y="-550" as="sourcePoint" />
            <mxPoint x="905" y="-430" as="targetPoint" />
          </mxGeometry>
        </mxCell>
        <mxCell id="G3nxdFLAYTbCHUNaFh7e-72" value="" style="endArrow=none;html=1;rounded=0;" parent="1" source="G3nxdFLAYTbCHUNaFh7e-65" target="G3nxdFLAYTbCHUNaFh7e-73" edge="1">
          <mxGeometry width="50" height="50" relative="1" as="geometry">
            <mxPoint x="1210" y="-545" as="sourcePoint" />
            <mxPoint x="820" y="-490" as="targetPoint" />
          </mxGeometry>
        </mxCell>
        <mxCell id="G3nxdFLAYTbCHUNaFh7e-73" value="Supervisor Meetings" style="rounded=1;whiteSpace=wrap;html=1;fillColor=#d5e8d4;strokeColor=#82b366;" parent="1" vertex="1">
          <mxGeometry x="1000" y="-720" width="200" height="40" as="geometry" />
        </mxCell>
        <mxCell id="G3nxdFLAYTbCHUNaFh7e-74" value="Feedback on Final Report" style="rounded=1;whiteSpace=wrap;html=1;fillColor=#d5e8d4;strokeColor=#82b366;" parent="1" vertex="1">
          <mxGeometry x="760" y="-720" width="200" height="40" as="geometry" />
        </mxCell>
        <mxCell id="G3nxdFLAYTbCHUNaFh7e-75" value="" style="endArrow=none;html=1;rounded=0;" parent="1" source="G3nxdFLAYTbCHUNaFh7e-65" target="G3nxdFLAYTbCHUNaFh7e-74" edge="1">
          <mxGeometry width="50" height="50" relative="1" as="geometry">
            <mxPoint x="1040" y="-560" as="sourcePoint" />
            <mxPoint x="982" y="-630" as="targetPoint" />
          </mxGeometry>
        </mxCell>
        <mxCell id="G3nxdFLAYTbCHUNaFh7e-79" value="Experiment" style="rounded=1;whiteSpace=wrap;html=1;fillColor=#d5e8d4;strokeColor=#82b366;" parent="1" vertex="1">
          <mxGeometry x="2280" y="-300" width="200" height="40" as="geometry" />
        </mxCell>
        <mxCell id="G3nxdFLAYTbCHUNaFh7e-80" value="" style="endArrow=none;html=1;rounded=0;entryX=0;entryY=0.5;entryDx=0;entryDy=0;" parent="1" source="G3nxdFLAYTbCHUNaFh7e-32" target="G3nxdFLAYTbCHUNaFh7e-79" edge="1">
          <mxGeometry width="50" height="50" relative="1" as="geometry">
            <mxPoint x="2170" y="-270" as="sourcePoint" />
            <mxPoint x="2250" y="-310" as="targetPoint" />
          </mxGeometry>
        </mxCell>
        <mxCell id="G3nxdFLAYTbCHUNaFh7e-81" value="Interim Review" style="rounded=1;whiteSpace=wrap;html=1;fillColor=#d5e8d4;strokeColor=#82b366;" parent="1" vertex="1">
          <mxGeometry x="1240" y="-720" width="200" height="40" as="geometry" />
        </mxCell>
        <mxCell id="G3nxdFLAYTbCHUNaFh7e-82" value="" style="endArrow=none;html=1;rounded=0;" parent="1" source="G3nxdFLAYTbCHUNaFh7e-65" target="G3nxdFLAYTbCHUNaFh7e-81" edge="1">
          <mxGeometry width="50" height="50" relative="1" as="geometry">
            <mxPoint x="1010" y="-550" as="sourcePoint" />
            <mxPoint x="970" y="-550" as="targetPoint" />
          </mxGeometry>
        </mxCell>
        <mxCell id="G3nxdFLAYTbCHUNaFh7e-85" value="" style="endArrow=none;html=1;rounded=0;" parent="1" source="G3nxdFLAYTbCHUNaFh7e-67" target="G3nxdFLAYTbCHUNaFh7e-87" edge="1">
          <mxGeometry width="50" height="50" relative="1" as="geometry">
            <mxPoint x="2660" y="20" as="sourcePoint" />
            <mxPoint x="2520" y="210" as="targetPoint" />
          </mxGeometry>
        </mxCell>
        <mxCell id="G3nxdFLAYTbCHUNaFh7e-87" value="Introduction" style="rounded=1;whiteSpace=wrap;html=1;" parent="1" vertex="1">
          <mxGeometry x="760" y="-120" width="200" height="40" as="geometry" />
        </mxCell>
        <mxCell id="G3nxdFLAYTbCHUNaFh7e-88" value="PDD" style="rounded=1;whiteSpace=wrap;html=1;" parent="1" vertex="1">
          <mxGeometry x="640" y="-360" width="200" height="40" as="geometry" />
        </mxCell>
        <mxCell id="G3nxdFLAYTbCHUNaFh7e-92" value="" style="endArrow=none;html=1;rounded=0;exitX=1;exitY=0.5;exitDx=0;exitDy=0;" parent="1" source="6WMuvclhTFSew641T1Q7-1" target="G3nxdFLAYTbCHUNaFh7e-15" edge="1">
          <mxGeometry width="50" height="50" relative="1" as="geometry">
            <mxPoint x="690" y="-46" as="sourcePoint" />
            <mxPoint x="390" y="244" as="targetPoint" />
          </mxGeometry>
        </mxCell>
        <mxCell id="G3nxdFLAYTbCHUNaFh7e-93" value="" style="endArrow=none;html=1;rounded=0;exitX=1;exitY=0.5;exitDx=0;exitDy=0;" parent="1" source="6WMuvclhTFSew641T1Q7-2" target="G3nxdFLAYTbCHUNaFh7e-15" edge="1">
          <mxGeometry width="50" height="50" relative="1" as="geometry">
            <mxPoint x="830" y="194" as="sourcePoint" />
            <mxPoint x="634" y="284" as="targetPoint" />
          </mxGeometry>
        </mxCell>
        <mxCell id="G3nxdFLAYTbCHUNaFh7e-95" value="Key" style="shape=umlFrame;whiteSpace=wrap;html=1;pointerEvents=0;width=80;height=30;" parent="1" vertex="1">
          <mxGeometry x="2620" y="-770" width="200" height="200" as="geometry" />
        </mxCell>
        <mxCell id="G3nxdFLAYTbCHUNaFh7e-97" value="Neutral" style="rounded=0;whiteSpace=wrap;html=1;" parent="1" vertex="1">
          <mxGeometry x="2640" y="-670" width="160" height="40" as="geometry" />
        </mxCell>
        <mxCell id="G3nxdFLAYTbCHUNaFh7e-96" value="Incomplete" style="rounded=0;whiteSpace=wrap;html=1;fillColor=#f8cecc;strokeColor=#b85450;" parent="1" vertex="1">
          <mxGeometry x="2640" y="-710" width="160" height="40" as="geometry" />
        </mxCell>
        <mxCell id="G3nxdFLAYTbCHUNaFh7e-98" value="Safe Leaf Node" style="rounded=0;whiteSpace=wrap;html=1;fillColor=#d5e8d4;strokeColor=#82b366;" parent="1" vertex="1">
          <mxGeometry x="2640" y="-630" width="160" height="40" as="geometry" />
        </mxCell>
        <mxCell id="6WMuvclhTFSew641T1Q7-1" value="On Metaheuristics" style="rounded=1;whiteSpace=wrap;html=1;" parent="1" vertex="1">
          <mxGeometry x="520" y="40" width="200" height="40" as="geometry" />
        </mxCell>
        <mxCell id="6WMuvclhTFSew641T1Q7-2" value="On Bioinformatics" style="rounded=1;whiteSpace=wrap;html=1;" parent="1" vertex="1">
          <mxGeometry x="520" y="120" width="200" height="40" as="geometry" />
        </mxCell>
        <mxCell id="6WMuvclhTFSew641T1Q7-3" value="Theory" style="rounded=1;whiteSpace=wrap;html=1;fillColor=#d5e8d4;strokeColor=#82b366;" parent="1" vertex="1">
          <mxGeometry x="270" y="10" width="200" height="40" as="geometry" />
        </mxCell>
        <mxCell id="6WMuvclhTFSew641T1Q7-4" value="Methods &amp;amp; Applications" style="rounded=1;whiteSpace=wrap;html=1;fillColor=#d5e8d4;strokeColor=#82b366;" parent="1" vertex="1">
          <mxGeometry x="270" y="50" width="200" height="40" as="geometry" />
        </mxCell>
        <mxCell id="6WMuvclhTFSew641T1Q7-5" value="" style="endArrow=none;html=1;rounded=0;" parent="1" source="6WMuvclhTFSew641T1Q7-3" target="6WMuvclhTFSew641T1Q7-1" edge="1">
          <mxGeometry width="50" height="50" relative="1" as="geometry">
            <mxPoint x="380" y="110" as="sourcePoint" />
            <mxPoint x="380" y="230" as="targetPoint" />
          </mxGeometry>
        </mxCell>
        <mxCell id="6WMuvclhTFSew641T1Q7-6" value="" style="endArrow=none;html=1;rounded=0;exitX=1;exitY=0.5;exitDx=0;exitDy=0;" parent="1" source="6WMuvclhTFSew641T1Q7-4" target="6WMuvclhTFSew641T1Q7-1" edge="1">
          <mxGeometry width="50" height="50" relative="1" as="geometry">
            <mxPoint x="308" y="-90" as="sourcePoint" />
            <mxPoint x="372" y="70" as="targetPoint" />
          </mxGeometry>
        </mxCell>
        <mxCell id="6WMuvclhTFSew641T1Q7-8" value="History of MSA" style="rounded=1;whiteSpace=wrap;html=1;fillColor=#d5e8d4;strokeColor=#82b366;" parent="1" vertex="1">
          <mxGeometry x="270" y="130" width="200" height="40" as="geometry" />
        </mxCell>
        <mxCell id="6WMuvclhTFSew641T1Q7-9" value="Future of MSA" style="rounded=1;whiteSpace=wrap;html=1;fillColor=#d5e8d4;strokeColor=#82b366;" parent="1" vertex="1">
          <mxGeometry x="270" y="170" width="200" height="40" as="geometry" />
        </mxCell>
        <mxCell id="6WMuvclhTFSew641T1Q7-11" value="" style="endArrow=none;html=1;rounded=0;exitX=1;exitY=0.5;exitDx=0;exitDy=0;" parent="1" source="6WMuvclhTFSew641T1Q7-8" target="6WMuvclhTFSew641T1Q7-2" edge="1">
          <mxGeometry width="50" height="50" relative="1" as="geometry">
            <mxPoint x="883" y="37" as="sourcePoint" />
            <mxPoint x="777" y="117" as="targetPoint" />
          </mxGeometry>
        </mxCell>
        <mxCell id="6WMuvclhTFSew641T1Q7-12" value="" style="endArrow=none;html=1;rounded=0;exitX=1;exitY=0.5;exitDx=0;exitDy=0;" parent="1" source="6WMuvclhTFSew641T1Q7-9" target="6WMuvclhTFSew641T1Q7-2" edge="1">
          <mxGeometry width="50" height="50" relative="1" as="geometry">
            <mxPoint x="970" y="110" as="sourcePoint" />
            <mxPoint x="850" y="125" as="targetPoint" />
          </mxGeometry>
        </mxCell>
        <mxCell id="6WMuvclhTFSew641T1Q7-13" value="" style="endArrow=none;html=1;rounded=0;" parent="1" source="G3nxdFLAYTbCHUNaFh7e-14" target="G3nxdFLAYTbCHUNaFh7e-69" edge="1">
          <mxGeometry width="50" height="50" relative="1" as="geometry">
            <mxPoint x="902" y="-710" as="sourcePoint" />
            <mxPoint x="758" y="-650" as="targetPoint" />
          </mxGeometry>
        </mxCell>
        <mxCell id="6WMuvclhTFSew641T1Q7-14" value="" style="endArrow=none;html=1;rounded=0;" parent="1" source="G3nxdFLAYTbCHUNaFh7e-14" target="G3nxdFLAYTbCHUNaFh7e-68" edge="1">
          <mxGeometry width="50" height="50" relative="1" as="geometry">
            <mxPoint x="1130" y="-670" as="sourcePoint" />
            <mxPoint x="1010" y="-710" as="targetPoint" />
          </mxGeometry>
        </mxCell>
        <mxCell id="6WMuvclhTFSew641T1Q7-15" value="Aims &amp;amp; Objectives" style="rounded=1;whiteSpace=wrap;html=1;fillColor=#d5e8d4;strokeColor=#82b366;" parent="1" vertex="1">
          <mxGeometry x="400" y="-680" width="200" height="40" as="geometry" />
        </mxCell>
        <mxCell id="6WMuvclhTFSew641T1Q7-16" value="" style="endArrow=none;html=1;rounded=0;exitX=1;exitY=0.5;exitDx=0;exitDy=0;" parent="1" source="6WMuvclhTFSew641T1Q7-15" target="6WMuvclhTFSew641T1Q7-23" edge="1">
          <mxGeometry width="50" height="50" relative="1" as="geometry">
            <mxPoint x="1090" y="115" as="sourcePoint" />
            <mxPoint x="1310" y="126" as="targetPoint" />
          </mxGeometry>
        </mxCell>
        <mxCell id="6WMuvclhTFSew641T1Q7-17" value="Gantt Chart" style="rounded=1;whiteSpace=wrap;html=1;fillColor=#d5e8d4;strokeColor=#82b366;" parent="1" vertex="1">
          <mxGeometry x="400" y="-520" width="200" height="40" as="geometry" />
        </mxCell>
        <mxCell id="6WMuvclhTFSew641T1Q7-18" value="" style="endArrow=none;html=1;rounded=0;exitX=1;exitY=0.5;exitDx=0;exitDy=0;" parent="1" source="6WMuvclhTFSew641T1Q7-17" target="6WMuvclhTFSew641T1Q7-23" edge="1">
          <mxGeometry width="50" height="50" relative="1" as="geometry">
            <mxPoint x="930" y="-350" as="sourcePoint" />
            <mxPoint x="1050" y="-310" as="targetPoint" />
          </mxGeometry>
        </mxCell>
        <mxCell id="6WMuvclhTFSew641T1Q7-22" value="" style="endArrow=none;html=1;rounded=0;" parent="1" source="G3nxdFLAYTbCHUNaFh7e-67" target="G3nxdFLAYTbCHUNaFh7e-2" edge="1">
          <mxGeometry width="50" height="50" relative="1" as="geometry">
            <mxPoint x="710" y="-330" as="sourcePoint" />
            <mxPoint x="681.666666666667" y="-500.0000000000002" as="targetPoint" />
          </mxGeometry>
        </mxCell>
        <mxCell id="6WMuvclhTFSew641T1Q7-23" value="Planning" style="rounded=1;whiteSpace=wrap;html=1;" parent="1" vertex="1">
          <mxGeometry x="640" y="-520" width="200" height="40" as="geometry" />
        </mxCell>
        <mxCell id="6WMuvclhTFSew641T1Q7-24" value="" style="endArrow=none;html=1;rounded=0;exitX=1;exitY=0.5;exitDx=0;exitDy=0;" parent="1" source="6WMuvclhTFSew641T1Q7-23" target="G3nxdFLAYTbCHUNaFh7e-2" edge="1">
          <mxGeometry width="50" height="50" relative="1" as="geometry">
            <mxPoint x="750" y="-330" as="sourcePoint" />
            <mxPoint x="720" y="-520.0000000000002" as="targetPoint" />
          </mxGeometry>
        </mxCell>
        <mxCell id="6WMuvclhTFSew641T1Q7-25" value="Evaluation" style="rounded=1;whiteSpace=wrap;html=1;" parent="1" vertex="1">
          <mxGeometry x="1240" y="-40" width="200" height="40" as="geometry" />
        </mxCell>
        <mxCell id="6WMuvclhTFSew641T1Q7-27" value="Performing Study" style="rounded=1;whiteSpace=wrap;html=1;fillColor=#d5e8d4;strokeColor=#82b366;" parent="1" vertex="1">
          <mxGeometry x="2280" width="200" height="40" as="geometry" />
        </mxCell>
        <mxCell id="6WMuvclhTFSew641T1Q7-28" value="" style="endArrow=none;html=1;rounded=0;entryX=0;entryY=0.5;entryDx=0;entryDy=0;" parent="1" source="G3nxdFLAYTbCHUNaFh7e-7" target="6WMuvclhTFSew641T1Q7-27" edge="1">
          <mxGeometry width="50" height="50" relative="1" as="geometry">
            <mxPoint x="2250" y="-10" as="sourcePoint" />
            <mxPoint x="2330" y="-10" as="targetPoint" />
          </mxGeometry>
        </mxCell>
        <mxCell id="6WMuvclhTFSew641T1Q7-29" value="Case Study Writeup" style="rounded=1;whiteSpace=wrap;html=1;fillColor=#d5e8d4;strokeColor=#82b366;" parent="1" vertex="1">
          <mxGeometry x="2280" y="40" width="200" height="40" as="geometry" />
        </mxCell>
        <mxCell id="6WMuvclhTFSew641T1Q7-30" value="" style="endArrow=none;html=1;rounded=0;entryX=0;entryY=0.5;entryDx=0;entryDy=0;" parent="1" source="G3nxdFLAYTbCHUNaFh7e-7" target="6WMuvclhTFSew641T1Q7-29" edge="1">
          <mxGeometry width="50" height="50" relative="1" as="geometry">
            <mxPoint x="2220" y="10" as="sourcePoint" />
            <mxPoint x="2360" y="50" as="targetPoint" />
          </mxGeometry>
        </mxCell>
        <mxCell id="6WMuvclhTFSew641T1Q7-36" value="UML (Use Case, System, Class)" style="rounded=1;whiteSpace=wrap;html=1;fillColor=#d5e8d4;strokeColor=#82b366;" parent="1" vertex="1">
          <mxGeometry x="2040" y="-440" width="200" height="40" as="geometry" />
        </mxCell>
        <mxCell id="6WMuvclhTFSew641T1Q7-39" value="Preparing Testcases" style="rounded=1;whiteSpace=wrap;html=1;fillColor=#d5e8d4;strokeColor=#82b366;" parent="1" vertex="1">
          <mxGeometry x="2040" y="-360" width="200" height="40" as="geometry" />
        </mxCell>
        <mxCell id="6WMuvclhTFSew641T1Q7-40" value="Design of Experiments" style="rounded=1;whiteSpace=wrap;html=1;fillColor=#d5e8d4;strokeColor=#82b366;" parent="1" vertex="1">
          <mxGeometry x="2040" y="-400" width="200" height="40" as="geometry" />
        </mxCell>
        <mxCell id="6WMuvclhTFSew641T1Q7-41" value="" style="endArrow=none;html=1;rounded=0;exitX=0;exitY=0.5;exitDx=0;exitDy=0;" parent="1" source="6WMuvclhTFSew641T1Q7-36" target="G3nxdFLAYTbCHUNaFh7e-51" edge="1">
          <mxGeometry width="50" height="50" relative="1" as="geometry">
            <mxPoint x="2090" y="-490" as="sourcePoint" />
            <mxPoint x="2010" y="-490" as="targetPoint" />
          </mxGeometry>
        </mxCell>
        <mxCell id="6WMuvclhTFSew641T1Q7-42" value="" style="endArrow=none;html=1;rounded=0;" parent="1" source="6WMuvclhTFSew641T1Q7-40" target="G3nxdFLAYTbCHUNaFh7e-51" edge="1">
          <mxGeometry width="50" height="50" relative="1" as="geometry">
            <mxPoint x="2090" y="-410" as="sourcePoint" />
            <mxPoint x="2000" y="-390" as="targetPoint" />
          </mxGeometry>
        </mxCell>
        <mxCell id="6WMuvclhTFSew641T1Q7-43" value="" style="endArrow=none;html=1;rounded=0;exitX=0;exitY=0.5;exitDx=0;exitDy=0;" parent="1" source="6WMuvclhTFSew641T1Q7-39" target="G3nxdFLAYTbCHUNaFh7e-51" edge="1">
          <mxGeometry width="50" height="50" relative="1" as="geometry">
            <mxPoint x="2090" y="-370" as="sourcePoint" />
            <mxPoint x="2010" y="-370" as="targetPoint" />
          </mxGeometry>
        </mxCell>
        <mxCell id="6WMuvclhTFSew641T1Q7-48" value="" style="endArrow=none;html=1;rounded=0;exitX=1;exitY=0.5;exitDx=0;exitDy=0;" parent="1" source="G3nxdFLAYTbCHUNaFh7e-88" target="G3nxdFLAYTbCHUNaFh7e-2" edge="1">
          <mxGeometry width="50" height="50" relative="1" as="geometry">
            <mxPoint x="1110" y="-410" as="sourcePoint" />
            <mxPoint x="792.5" y="-500.0000000000002" as="targetPoint" />
          </mxGeometry>
        </mxCell>
        <mxCell id="6WMuvclhTFSew641T1Q7-50" value="Risks &amp;amp; Mitigations" style="rounded=1;whiteSpace=wrap;html=1;fillColor=#d5e8d4;strokeColor=#82b366;" parent="1" vertex="1">
          <mxGeometry x="400" y="-640" width="200" height="40" as="geometry" />
        </mxCell>
        <mxCell id="6WMuvclhTFSew641T1Q7-52" value="Ethical Considerations" style="rounded=1;whiteSpace=wrap;html=1;fillColor=#d5e8d4;strokeColor=#82b366;" parent="1" vertex="1">
          <mxGeometry x="400" y="-600" width="200" height="40" as="geometry" />
        </mxCell>
        <mxCell id="6WMuvclhTFSew641T1Q7-53" value="" style="endArrow=none;html=1;rounded=0;exitX=1;exitY=0.5;exitDx=0;exitDy=0;" parent="1" source="6WMuvclhTFSew641T1Q7-52" target="6WMuvclhTFSew641T1Q7-23" edge="1">
          <mxGeometry width="50" height="50" relative="1" as="geometry">
            <mxPoint x="610" y="-450" as="sourcePoint" />
            <mxPoint x="650" y="-450" as="targetPoint" />
          </mxGeometry>
        </mxCell>
        <mxCell id="6WMuvclhTFSew641T1Q7-54" value="Work Breakdown" style="rounded=1;whiteSpace=wrap;html=1;fillColor=#d5e8d4;strokeColor=#82b366;" parent="1" vertex="1">
          <mxGeometry x="400" y="-560" width="200" height="40" as="geometry" />
        </mxCell>
        <mxCell id="6WMuvclhTFSew641T1Q7-55" value="" style="endArrow=none;html=1;rounded=0;exitX=1;exitY=0.5;exitDx=0;exitDy=0;" parent="1" source="6WMuvclhTFSew641T1Q7-54" target="6WMuvclhTFSew641T1Q7-23" edge="1">
          <mxGeometry width="50" height="50" relative="1" as="geometry">
            <mxPoint x="610" y="-427" as="sourcePoint" />
            <mxPoint x="650" y="-433" as="targetPoint" />
          </mxGeometry>
        </mxCell>
        <mxCell id="6WMuvclhTFSew641T1Q7-56" value="" style="endArrow=none;html=1;rounded=0;exitX=1;exitY=0.5;exitDx=0;exitDy=0;" parent="1" source="6WMuvclhTFSew641T1Q7-50" target="6WMuvclhTFSew641T1Q7-23" edge="1">
          <mxGeometry width="50" height="50" relative="1" as="geometry">
            <mxPoint x="610" y="-650" as="sourcePoint" />
            <mxPoint x="736" y="-470" as="targetPoint" />
          </mxGeometry>
        </mxCell>
        <mxCell id="6WMuvclhTFSew641T1Q7-57" value="" style="endArrow=none;html=1;rounded=0;entryX=0;entryY=0.5;entryDx=0;entryDy=0;" parent="1" source="G3nxdFLAYTbCHUNaFh7e-67" target="6WMuvclhTFSew641T1Q7-25" edge="1">
          <mxGeometry width="50" height="50" relative="1" as="geometry">
            <mxPoint x="1690" y="470" as="sourcePoint" />
            <mxPoint x="1650" y="470" as="targetPoint" />
          </mxGeometry>
        </mxCell>
        <mxCell id="6WMuvclhTFSew641T1Q7-58" value="Background &amp;amp; Purpose" style="rounded=1;whiteSpace=wrap;html=1;fillColor=#d5e8d4;strokeColor=#82b366;" parent="1" vertex="1">
          <mxGeometry x="400" y="-420" width="200" height="40" as="geometry" />
        </mxCell>
        <mxCell id="6WMuvclhTFSew641T1Q7-59" value="Rationale &amp;amp; Operation" style="rounded=1;whiteSpace=wrap;html=1;fillColor=#d5e8d4;strokeColor=#82b366;" parent="1" vertex="1">
          <mxGeometry x="400" y="-380" width="200" height="40" as="geometry" />
        </mxCell>
        <mxCell id="6WMuvclhTFSew641T1Q7-61" value="Methodology &amp;amp; Outcomes" style="rounded=1;whiteSpace=wrap;html=1;fillColor=#d5e8d4;strokeColor=#82b366;" parent="1" vertex="1">
          <mxGeometry x="400" y="-340" width="200" height="40" as="geometry" />
        </mxCell>
        <mxCell id="6WMuvclhTFSew641T1Q7-62" value="" style="endArrow=none;html=1;rounded=0;exitX=1;exitY=0.5;exitDx=0;exitDy=0;" parent="1" source="6WMuvclhTFSew641T1Q7-58" target="G3nxdFLAYTbCHUNaFh7e-88" edge="1">
          <mxGeometry width="50" height="50" relative="1" as="geometry">
            <mxPoint x="760" y="-250" as="sourcePoint" />
            <mxPoint x="810" y="-300" as="targetPoint" />
          </mxGeometry>
        </mxCell>
        <mxCell id="6WMuvclhTFSew641T1Q7-63" value="" style="endArrow=none;html=1;rounded=0;exitX=1;exitY=0.5;exitDx=0;exitDy=0;" parent="1" source="6WMuvclhTFSew641T1Q7-59" target="G3nxdFLAYTbCHUNaFh7e-88" edge="1">
          <mxGeometry width="50" height="50" relative="1" as="geometry">
            <mxPoint x="530" y="-390" as="sourcePoint" />
            <mxPoint x="650" y="-390" as="targetPoint" />
          </mxGeometry>
        </mxCell>
        <mxCell id="6WMuvclhTFSew641T1Q7-64" value="" style="endArrow=none;html=1;rounded=0;exitX=1;exitY=0.5;exitDx=0;exitDy=0;" parent="1" source="6WMuvclhTFSew641T1Q7-61" target="G3nxdFLAYTbCHUNaFh7e-88" edge="1">
          <mxGeometry width="50" height="50" relative="1" as="geometry">
            <mxPoint x="530" y="-362" as="sourcePoint" />
            <mxPoint x="650" y="-377" as="targetPoint" />
          </mxGeometry>
        </mxCell>
        <mxCell id="6WMuvclhTFSew641T1Q7-65" value="" style="endArrow=none;html=1;rounded=0;" parent="1" target="G3nxdFLAYTbCHUNaFh7e-88" edge="1">
          <mxGeometry width="50" height="50" relative="1" as="geometry">
            <mxPoint x="600" y="-280" as="sourcePoint" />
            <mxPoint x="680" y="-330" as="targetPoint" />
          </mxGeometry>
        </mxCell>
        <mxCell id="6WMuvclhTFSew641T1Q7-66" value="Revisions &amp;amp; Miscellany" style="rounded=1;whiteSpace=wrap;html=1;fillColor=#d5e8d4;strokeColor=#82b366;" parent="1" vertex="1">
          <mxGeometry x="400" y="-300" width="200" height="40" as="geometry" />
        </mxCell>
        <mxCell id="BqUgfC9sZgXFIwKBwUk5-1" value="Aims &amp;amp; Objectives" style="rounded=1;whiteSpace=wrap;html=1;" vertex="1" parent="1">
          <mxGeometry x="760" y="-40" width="200" height="40" as="geometry" />
        </mxCell>
        <mxCell id="BqUgfC9sZgXFIwKBwUk5-3" value="" style="endArrow=none;html=1;rounded=0;" edge="1" parent="1" source="BqUgfC9sZgXFIwKBwUk5-1" target="G3nxdFLAYTbCHUNaFh7e-67">
          <mxGeometry width="50" height="50" relative="1" as="geometry">
            <mxPoint x="2005" y="100" as="sourcePoint" />
            <mxPoint x="1785" y="20" as="targetPoint" />
          </mxGeometry>
        </mxCell>
        <mxCell id="BqUgfC9sZgXFIwKBwUk5-4" value="Requirements" style="rounded=1;whiteSpace=wrap;html=1;" vertex="1" parent="1">
          <mxGeometry x="760" y="200" width="200" height="40" as="geometry" />
        </mxCell>
        <mxCell id="BqUgfC9sZgXFIwKBwUk5-5" value="" style="endArrow=none;html=1;rounded=0;" edge="1" parent="1" source="BqUgfC9sZgXFIwKBwUk5-4" target="G3nxdFLAYTbCHUNaFh7e-67">
          <mxGeometry width="50" height="50" relative="1" as="geometry">
            <mxPoint x="2065" y="450" as="sourcePoint" />
            <mxPoint x="1845" y="370" as="targetPoint" />
          </mxGeometry>
        </mxCell>
        <mxCell id="BqUgfC9sZgXFIwKBwUk5-6" value="" style="endArrow=none;html=1;rounded=0;exitX=0;exitY=0.5;exitDx=0;exitDy=0;" edge="1" parent="1" source="BqUgfC9sZgXFIwKBwUk5-7" target="G3nxdFLAYTbCHUNaFh7e-67">
          <mxGeometry width="50" height="50" relative="1" as="geometry">
            <mxPoint x="1540" y="550" as="sourcePoint" />
            <mxPoint x="1795" y="370" as="targetPoint" />
          </mxGeometry>
        </mxCell>
        <mxCell id="BqUgfC9sZgXFIwKBwUk5-7" value="Design" style="rounded=1;whiteSpace=wrap;html=1;" vertex="1" parent="1">
          <mxGeometry x="1240" y="-120" width="200" height="40" as="geometry" />
        </mxCell>
        <mxCell id="BqUgfC9sZgXFIwKBwUk5-9" value="Conclusion" style="rounded=1;whiteSpace=wrap;html=1;" vertex="1" parent="1">
          <mxGeometry x="1240" y="40" width="200" height="40" as="geometry" />
        </mxCell>
        <mxCell id="BqUgfC9sZgXFIwKBwUk5-10" value="Feedback" style="rounded=1;whiteSpace=wrap;html=1;" vertex="1" parent="1">
          <mxGeometry x="1240" y="120" width="200" height="40" as="geometry" />
        </mxCell>
        <mxCell id="BqUgfC9sZgXFIwKBwUk5-11" value="Refinements &amp;amp; Miscellany" style="rounded=1;whiteSpace=wrap;html=1;" vertex="1" parent="1">
          <mxGeometry x="1240" y="200" width="200" height="40" as="geometry" />
        </mxCell>
        <mxCell id="BqUgfC9sZgXFIwKBwUk5-12" value="" style="endArrow=none;html=1;rounded=0;exitX=0;exitY=0.5;exitDx=0;exitDy=0;" edge="1" parent="1" source="BqUgfC9sZgXFIwKBwUk5-10" target="G3nxdFLAYTbCHUNaFh7e-67">
          <mxGeometry width="50" height="50" relative="1" as="geometry">
            <mxPoint x="1595" y="610" as="sourcePoint" />
            <mxPoint x="1775" y="370" as="targetPoint" />
          </mxGeometry>
        </mxCell>
        <mxCell id="BqUgfC9sZgXFIwKBwUk5-13" value="" style="endArrow=none;html=1;rounded=0;exitX=0;exitY=0.5;exitDx=0;exitDy=0;exitPerimeter=0;" edge="1" parent="1" source="BqUgfC9sZgXFIwKBwUk5-11" target="G3nxdFLAYTbCHUNaFh7e-67">
          <mxGeometry width="50" height="50" relative="1" as="geometry">
            <mxPoint x="1799" y="720" as="sourcePoint" />
            <mxPoint x="1791" y="370" as="targetPoint" />
          </mxGeometry>
        </mxCell>
        <mxCell id="BqUgfC9sZgXFIwKBwUk5-14" value="" style="endArrow=none;html=1;rounded=0;exitX=0;exitY=0.5;exitDx=0;exitDy=0;" edge="1" parent="1" source="BqUgfC9sZgXFIwKBwUk5-9" target="G3nxdFLAYTbCHUNaFh7e-67">
          <mxGeometry width="50" height="50" relative="1" as="geometry">
            <mxPoint x="1939" y="610" as="sourcePoint" />
            <mxPoint x="1801" y="370" as="targetPoint" />
          </mxGeometry>
        </mxCell>
      </root>
    </mxGraphModel>
  </diagram>
</mxfile>
